<svg xmlns="http://www.w3.org/2000/svg" width="268.388" height="235.637" viewBox="0 0 268.388 235.637">
  <defs>
    <style>
      .cls-1 {
        fill: #d83f87;
      }

      .cls-2 {
        fill: #5cdb95;
      }
    </style>
  </defs>
  <g id="Asset_1" data-name="Asset 1" transform="translate(142.383 -39.083) rotate(47)">
    <g id="Layer_1" data-name="Layer 1">
      <g id="Group-14-Copy">
        <path id="Fill-1" class="cls-1" d="M0,68.11H0a2.43,2.43,0,0,1,2.82-2.23L37.14,70l-.65,5.15L2.27,71A2.52,2.52,0,0,1,0,68.11"/>
        <g id="Group-5">
          <g id="Fill-3-Clipped">
            <g id="Group_4" data-name="Group 4">
              <path id="Fill-3" class="cls-1" d="M181.74,178.92a48.11,48.11,0,0,0,11.08-45.61L137,193.16a47.89,47.89,0,0,0,44.73-14.24"/>
            </g>
          </g>
        </g>
        <path id="Fill-6" class="cls-1" d="M113.83,181.17l1.56,1.45,65.47-70.21-1.55-1.45-16.73-15.6L97.11,165.57Z"/>
        <g id="Fill-8-Clipped">
          <g id="Group_5" data-name="Group 5">
            <path id="Fill-8" class="cls-1" d="M80.28,149.88l65.48-70.21L127.47,62.62,62,132.83Z"/>
          </g>
        </g>
        <g id="Fill-10-Clipped">
          <g id="Group_6" data-name="Group 6">
            <path id="Fill-10" class="cls-2" d="M44.19,132.16h0a7.29,7.29,0,0,1,9.4,2.8l43,72.95a15.9,15.9,0,0,1-5.65,21.93l-.89.48a15.12,15.12,0,0,1-20.19-6.61c-.33-.6-.5-1.2-.83-1.79L40.32,141.34a7.51,7.51,0,0,1,3.87-9.18"/>
          </g>
        </g>
        <g id="Fill-11-Clipped">
          <g id="Group_7" data-name="Group 7">
            <path id="Fill-11" class="cls-2" d="M125.56,44.9h0A7.3,7.3,0,0,0,129,54.08l75.77,37.79a15.89,15.89,0,0,0,21.48-7.17l.42-.92a15.12,15.12,0,0,0-8-19.68c-.61-.28-1.22-.41-1.84-.7l-82.38-23a7.55,7.55,0,0,0-8.89,4.5"/>
          </g>
        </g>
        <g id="Fill-12-Clipped">
          <g id="Group_8" data-name="Group 8">
            <path id="Fill-12" class="cls-1" d="M74.7,58.21a4.16,4.16,0,0,1-5.88.23,4.1,4.1,0,0,1-.19-5.88,4.18,4.18,0,0,1,5.89-.23,4.1,4.1,0,0,1,.18,5.88M53.94,80.47a4.16,4.16,0,0,1-5.88.23,4.09,4.09,0,0,1-.18-5.88,4.17,4.17,0,0,1,5.88-.23,4.1,4.1,0,0,1,.18,5.88M105.23,42a15.888,15.888,0,0,1-1.45,1.72A19.66,19.66,0,0,1,76,44.79,19.15,19.15,0,0,1,69.9,30,48.08,48.08,0,0,0,38.43,45.2c-18,19.36-17.19,49.62,2,67.52l4.74,4.43L110.6,47l-4.75-4.43a1.14,1.14,0,0,0-.62-.58"/>
          </g>
        </g>
        <g id="Fill-13-Clipped">
          <g id="Group_9" data-name="Group 9">
            <path id="Fill-13" d="M58.71,0c9.13,7.2,10.61,16.78,3.23,28.8-6.57-5.55-7.58-10.29-7.5-16.67S58.71,0,58.71,0"/>
          </g>
        </g>
      </g>
    </g>
  </g>
</svg>
